<?xml version="1.0" encoding="UTF-8" standalone="no"?>
<!-- Created with Inkscape (http://www.inkscape.org/) -->

<svg
   xmlns:dc="http://purl.org/dc/elements/1.1/"
   xmlns:cc="http://creativecommons.org/ns#"
   xmlns:rdf="http://www.w3.org/1999/02/22-rdf-syntax-ns#"
   xmlns:svg="http://www.w3.org/2000/svg"
   xmlns="http://www.w3.org/2000/svg"
   xmlns:sodipodi="http://sodipodi.sourceforge.net/DTD/sodipodi-0.dtd"
   xmlns:inkscape="http://www.inkscape.org/namespaces/inkscape"
   version="1.1"
   id="svg4485"
   xml:space="preserve"
   width="84.071526mm"
   height="38.971497mm"
   viewBox="0 0 317.75065 147.29385"
   sodipodi:docname="THB_Werkstatt_Logo_CMYK_pfade.svg"
   inkscape:version="0.92.2 (5c3e80d, 2017-08-06)"><metadata
     id="metadata4491"><rdf:RDF><cc:Work
         rdf:about=""><dc:format>image/svg+xml</dc:format><dc:type
           rdf:resource="http://purl.org/dc/dcmitype/StillImage" /><dc:title></dc:title></cc:Work></rdf:RDF></metadata><defs
     id="defs4489"><clipPath
       id="clipPath102"
       clipPathUnits="userSpaceOnUse"><path
         inkscape:connector-curvature="0"
         id="path100"
         d="M 0,122.032 H 201.417 V 0 H 0 Z" /></clipPath></defs><sodipodi:namedview
     pagecolor="#ffffff"
     bordercolor="#666666"
     borderopacity="1"
     objecttolerance="10"
     gridtolerance="10"
     guidetolerance="10"
     inkscape:pageopacity="0"
     inkscape:pageshadow="2"
     inkscape:window-width="1304"
     inkscape:window-height="745"
     id="namedview4487"
     showgrid="false"
     inkscape:zoom="2.8507105"
     inkscape:cx="144.49233"
     inkscape:cy="76.574375"
     inkscape:window-x="54"
     inkscape:window-y="-8"
     inkscape:window-maximized="1"
     inkscape:current-layer="g4495"
     units="mm"
     fit-margin-top="0"
     fit-margin-left="0"
     fit-margin-right="0"
     fit-margin-bottom="0" /><g
     id="g4493"
     inkscape:groupmode="layer"
     inkscape:label="ink_ext_XXXXXX"
     transform="matrix(1.3333333,0,0,-1.3333333,0,151.15253)"><g
       id="g4495"
       transform="scale(0.1)"><path
         d="M 0,28.940155 H 2383.13 V 1133.644 H 0 Z"
         style="fill:#ffffff;fill-opacity:1;fill-rule:nonzero;stroke:none;stroke-width:1.05271566"
         id="path4497"
         inkscape:connector-curvature="0" /><path
         d="m 813.184,834.706 h -21.289 v 14.192 h 57.968 v -14.192 h -21.289 v -55.769 h -15.39 v 55.769"
         style="fill:#231f20;fill-opacity:1;fill-rule:nonzero;stroke:none"
         id="path4499"
         inkscape:connector-curvature="0" /><path
         d="m 884.773,809.917 c -0.894,6.797 -4.894,11.399 -11.293,11.399 -6.296,0 -10.394,-4.496 -11.589,-11.399 z m -37.777,-4.496 v 0.2 c 0,15.292 10.895,27.886 26.484,27.886 17.891,0 26.086,-13.89 26.086,-29.082 0,-1.199 -0.097,-2.601 -0.203,-4 h -37.277 c 1.5,-6.898 6.297,-10.492 13.094,-10.492 5.097,0 8.797,1.598 12.996,5.492 l 8.695,-7.695 c -5,-6.195 -12.199,-9.992 -21.891,-9.992 -16.093,0 -27.984,11.293 -27.984,27.683"
         style="fill:#231f20;fill-opacity:1;fill-rule:nonzero;stroke:none"
         id="path4501"
         inkscape:connector-curvature="0" /><path
         d="m 908.297,805.421 v 0.2 c 0,15.292 11.691,27.886 28.082,27.886 10.098,0 16.391,-3.398 21.391,-8.996 l -9.297,-9.992 c -3.399,3.598 -6.797,5.898 -12.196,5.898 -7.593,0 -12.992,-6.699 -12.992,-14.593 v -0.203 c 0,-8.192 5.301,-14.79 13.594,-14.79 5.098,0 8.594,2.2 12.293,5.696 l 8.894,-8.996 c -5.195,-5.696 -11.191,-9.793 -21.89,-9.793 -16.086,0 -27.879,12.39 -27.879,27.683"
         style="fill:#231f20;fill-opacity:1;fill-rule:nonzero;stroke:none"
         id="path4503"
         inkscape:connector-curvature="0" /><path
         d="m 967.992,851.898 h 15.192 v -26.985 c 3.5,4.497 8,8.594 15.695,8.594 11.491,0 18.191,-7.597 18.191,-19.886 v -34.684 h -15.19 v 29.883 c 0,7.199 -3.403,10.894 -9.2,10.894 -5.801,0 -9.496,-3.695 -9.496,-10.894 v -29.883 h -15.192 v 72.961"
         style="fill:#231f20;fill-opacity:1;fill-rule:nonzero;stroke:none"
         id="path4505"
         inkscape:connector-curvature="0" /><path
         d="m 1030.29,832.507 h 15.19 v -7.594 c 3.5,4.497 8,8.594 15.7,8.594 11.49,0 18.19,-7.597 18.19,-19.886 v -34.684 h -15.2 v 29.883 c 0,7.199 -3.39,10.894 -9.19,10.894 -5.8,0 -9.5,-3.695 -9.5,-10.894 v -29.883 h -15.19 v 53.57"
         style="fill:#231f20;fill-opacity:1;fill-rule:nonzero;stroke:none"
         id="path4507"
         inkscape:connector-curvature="0" /><path
         d="m 1093.29,832.507 h 15.19 v -53.57 h -15.19 z m -0.4,19.391 h 15.99 v -13.492 h -15.99 v 13.492"
         style="fill:#231f20;fill-opacity:1;fill-rule:nonzero;stroke:none"
         id="path4509"
         inkscape:connector-curvature="0" /><path
         d="m 1118.59,786.031 6.5,9.996 c 5.79,-4.199 11.89,-6.399 16.89,-6.399 4.4,0 6.39,1.606 6.39,4 v 0.203 c 0,3.293 -5.2,4.395 -11.09,6.196 -7.49,2.195 -15.99,5.699 -15.99,16.09 v 0.199 c 0,10.89 8.79,16.992 19.59,16.992 6.8,0 14.19,-2.301 19.98,-6.195 l -5.79,-10.496 c -5.3,3.097 -10.59,4.996 -14.49,4.996 -3.7,0 -5.6,-1.598 -5.6,-3.696 v -0.203 c 0,-2.996 5.1,-4.398 10.89,-6.394 7.5,-2.5 16.2,-6.098 16.2,-15.895 v -0.199 c 0,-11.891 -8.9,-17.289 -20.49,-17.289 -7.5,0 -15.9,2.5 -22.99,8.094"
         style="fill:#231f20;fill-opacity:1;fill-rule:nonzero;stroke:none"
         id="path4511"
         inkscape:connector-curvature="0" /><path
         d="m 1170.39,805.421 v 0.2 c 0,15.292 11.69,27.886 28.08,27.886 10.1,0 16.39,-3.398 21.39,-8.996 l -9.29,-9.992 c -3.4,3.598 -6.8,5.898 -12.2,5.898 -7.59,0 -12.99,-6.699 -12.99,-14.593 v -0.203 c 0,-8.192 5.3,-14.79 13.59,-14.79 5.1,0 8.6,2.2 12.29,5.696 l 8.9,-8.996 c -5.19,-5.696 -11.19,-9.793 -21.89,-9.793 -16.09,0 -27.88,12.39 -27.88,27.683"
         style="fill:#231f20;fill-opacity:1;fill-rule:nonzero;stroke:none"
         id="path4513"
         inkscape:connector-curvature="0" /><path
         d="m 1230.09,851.898 h 15.19 v -26.985 c 3.5,4.497 8,8.594 15.69,8.594 11.5,0 18.19,-7.597 18.19,-19.886 v -34.684 h -15.19 v 29.883 c 0,7.199 -3.4,10.894 -9.19,10.894 -5.81,0 -9.5,-3.695 -9.5,-10.894 v -29.883 h -15.19 v 72.961"
         style="fill:#231f20;fill-opacity:1;fill-rule:nonzero;stroke:none"
         id="path4515"
         inkscape:connector-curvature="0" /><path
         d="m 1327.57,809.917 c -0.9,6.797 -4.9,11.399 -11.3,11.399 -6.29,0 -10.39,-4.496 -11.59,-11.399 z m -37.78,-4.496 v 0.2 c 0,15.292 10.89,27.886 26.48,27.886 17.9,0 26.09,-13.89 26.09,-29.082 0,-1.199 -0.1,-2.601 -0.2,-4 h -37.28 c 1.5,-6.898 6.3,-10.492 13.09,-10.492 5.1,0 8.8,1.598 13,5.492 l 8.69,-7.695 c -5,-6.195 -12.19,-9.992 -21.89,-9.992 -16.09,0 -27.98,11.293 -27.98,27.683"
         style="fill:#231f20;fill-opacity:1;fill-rule:nonzero;stroke:none"
         id="path4517"
         inkscape:connector-curvature="0" /><path
         d="m 1385.28,848.898 h 15.39 V 821.21 h 28.39 v 27.688 h 15.39 v -69.961 h -15.39 v 28.086 h -28.39 v -28.086 h -15.39 v 69.961"
         style="fill:#231f20;fill-opacity:1;fill-rule:nonzero;stroke:none"
         id="path4519"
         inkscape:connector-curvature="0" /><path
         d="m 1500.06,805.421 v 0.2 c 0,7.898 -5.69,14.796 -14.09,14.796 -8.7,0 -13.89,-6.699 -13.89,-14.593 v -0.203 c 0,-7.895 5.69,-14.79 14.09,-14.79 8.69,0 13.89,6.696 13.89,14.59 z m -42.98,0 v 0.2 c 0,15.39 12.4,27.886 29.09,27.886 16.59,0 28.88,-12.297 28.88,-27.683 v -0.203 c 0,-15.391 -12.39,-27.883 -29.08,-27.883 -16.59,0 -28.89,12.293 -28.89,27.683"
         style="fill:#231f20;fill-opacity:1;fill-rule:nonzero;stroke:none"
         id="path4521"
         inkscape:connector-curvature="0" /><path
         d="m 1523.49,805.421 v 0.2 c 0,15.292 11.69,27.886 28.08,27.886 10.1,0 16.39,-3.398 21.39,-8.996 l -9.3,-9.992 c -3.4,3.598 -6.79,5.898 -12.19,5.898 -7.6,0 -12.99,-6.699 -12.99,-14.593 v -0.203 c 0,-8.192 5.29,-14.79 13.59,-14.79 5.1,0 8.59,2.2 12.29,5.696 l 8.9,-8.996 c -5.2,-5.696 -11.19,-9.793 -21.89,-9.793 -16.09,0 -27.88,12.39 -27.88,27.683"
         style="fill:#231f20;fill-opacity:1;fill-rule:nonzero;stroke:none"
         id="path4523"
         inkscape:connector-curvature="0" /><path
         d="m 1583.18,851.898 h 15.19 v -26.985 c 3.51,4.497 8,8.594 15.7,8.594 11.49,0 18.19,-7.597 18.19,-19.886 v -34.684 h -15.19 v 29.883 c 0,7.199 -3.4,10.894 -9.2,10.894 -5.8,0 -9.5,-3.695 -9.5,-10.894 v -29.883 h -15.19 v 72.961"
         style="fill:#231f20;fill-opacity:1;fill-rule:nonzero;stroke:none"
         id="path4525"
         inkscape:connector-curvature="0" /><path
         d="m 1641.28,786.031 6.5,9.996 c 5.79,-4.199 11.89,-6.399 16.89,-6.399 4.39,0 6.39,1.606 6.39,4 v 0.203 c 0,3.293 -5.19,4.395 -11.09,6.196 -7.49,2.195 -15.99,5.699 -15.99,16.09 v 0.199 c 0,10.89 8.79,16.992 19.59,16.992 6.8,0 14.19,-2.301 19.98,-6.195 l -5.79,-10.496 c -5.3,3.097 -10.59,4.996 -14.49,4.996 -3.7,0 -5.6,-1.598 -5.6,-3.696 v -0.203 c 0,-2.996 5.1,-4.398 10.89,-6.394 7.5,-2.5 16.2,-6.098 16.2,-15.895 v -0.199 c 0,-11.891 -8.9,-17.289 -20.49,-17.289 -7.5,0 -15.9,2.5 -22.99,8.094"
         style="fill:#231f20;fill-opacity:1;fill-rule:nonzero;stroke:none"
         id="path4527"
         inkscape:connector-curvature="0" /><path
         d="m 1693.08,805.421 v 0.2 c 0,15.292 11.7,27.886 28.08,27.886 10.1,0 16.39,-3.398 21.39,-8.996 l -9.29,-9.992 c -3.4,3.598 -6.8,5.898 -12.2,5.898 -7.59,0 -12.99,-6.699 -12.99,-14.593 v -0.203 c 0,-8.192 5.3,-14.79 13.6,-14.79 5.09,0 8.59,2.2 12.29,5.696 l 8.89,-8.996 c -5.19,-5.696 -11.19,-9.793 -21.89,-9.793 -16.09,0 -27.88,12.39 -27.88,27.683"
         style="fill:#231f20;fill-opacity:1;fill-rule:nonzero;stroke:none"
         id="path4529"
         inkscape:connector-curvature="0" /><path
         d="m 1752.78,851.898 h 15.19 v -26.985 c 3.5,4.497 8,8.594 15.69,8.594 11.5,0 18.19,-7.597 18.19,-19.886 v -34.684 h -15.19 v 29.883 c 0,7.199 -3.4,10.894 -9.19,10.894 -5.8,0 -9.5,-3.695 -9.5,-10.894 v -29.883 h -15.19 v 72.961"
         style="fill:#231f20;fill-opacity:1;fill-rule:nonzero;stroke:none"
         id="path4531"
         inkscape:connector-curvature="0" /><path
         d="m 1814.68,797.828 v 34.679 h 15.19 v -29.883 c 0,-7.199 3.4,-10.894 9.19,-10.894 5.8,0 9.5,3.695 9.5,10.894 v 29.883 h 15.19 v -53.57 h -15.19 v 7.598 c -3.5,-4.497 -8,-8.598 -15.69,-8.598 -11.5,0 -18.19,7.598 -18.19,19.891"
         style="fill:#231f20;fill-opacity:1;fill-rule:nonzero;stroke:none"
         id="path4533"
         inkscape:connector-curvature="0" /><path
         d="m 1878.08,778.937 h 15.1914 v 72.9609 H 1878.08 Z"
         style="fill:#231f20;fill-opacity:1;fill-rule:nonzero;stroke:none"
         id="path4535"
         inkscape:connector-curvature="0" /><path
         d="m 1942.76,809.917 c -0.9,6.797 -4.9,11.399 -11.3,11.399 -6.29,0 -10.39,-4.496 -11.59,-11.399 z m -37.78,-4.496 v 0.2 c 0,15.292 10.89,27.886 26.48,27.886 17.9,0 26.09,-13.89 26.09,-29.082 0,-1.199 -0.1,-2.601 -0.2,-4 h -37.28 c 1.5,-6.898 6.3,-10.492 13.09,-10.492 5.1,0 8.8,1.598 13,5.492 l 8.69,-7.695 c -5,-6.195 -12.19,-9.992 -21.89,-9.992 -16.09,0 -27.98,11.293 -27.98,27.683"
         style="fill:#231f20;fill-opacity:1;fill-rule:nonzero;stroke:none"
         id="path4537"
         inkscape:connector-curvature="0" /><path
         d="m 829.672,687.82 h -17.785 v -15.391 h 18.285 c 6.797,0 10.898,2.402 10.898,7.598 v 0.199 c 0,4.695 -3.504,7.594 -11.398,7.594 z m 7.496,20.39 c 0,4.598 -3.598,7.196 -10.094,7.196 h -15.187 v -14.793 h 14.187 c 6.797,0 11.094,2.203 11.094,7.394 z m -40.277,20.688 h 32.484 c 7.992,0 14.293,-2.195 18.293,-6.195 3.191,-3.2 4.793,-7.094 4.793,-11.895 v -0.199 c 0,-7.899 -4.199,-12.293 -9.195,-15.09 8.097,-3.102 13.089,-7.797 13.089,-17.191 v -0.204 c 0,-12.793 -10.386,-19.187 -26.183,-19.187 h -33.281 v 69.961"
         style="fill:#231f20;fill-opacity:1;fill-rule:nonzero;stroke:none"
         id="path4539"
         inkscape:connector-curvature="0" /><path
         d="m 867.488,712.507 h 15.192 v -10.793 c 3.101,7.395 8.097,12.196 17.09,11.793 v -15.894 h -0.793 c -10.098,0 -16.297,-6.094 -16.297,-18.887 v -19.789 h -15.192 v 53.57"
         style="fill:#231f20;fill-opacity:1;fill-rule:nonzero;stroke:none"
         id="path4541"
         inkscape:connector-curvature="0" /><path
         d="m 938.473,677.828 v 2.695 c -2.598,1.203 -5.996,2.004 -9.696,2.004 -6.492,0 -10.492,-2.606 -10.492,-7.399 v -0.199 c 0,-4.098 3.399,-6.496 8.297,-6.496 7.094,0 11.891,3.898 11.891,9.395 z m -34.879,-3.5 v 0.199 c 0,11.695 8.894,17.09 21.586,17.09 5.394,0 9.297,-0.899 13.097,-2.196 v 0.899 c 0,6.297 -3.902,9.793 -11.496,9.793 -5.801,0 -9.894,-1.098 -14.793,-2.895 l -3.8,11.594 c 5.898,2.598 11.695,4.297 20.792,4.297 8.293,0 14.29,-2.199 18.09,-5.996 4,-4 5.797,-9.895 5.797,-17.09 v -31.086 h -14.691 v 5.797 c -3.699,-4.098 -8.797,-6.797 -16.196,-6.797 -10.089,0 -18.386,5.797 -18.386,16.391"
         style="fill:#231f20;fill-opacity:1;fill-rule:nonzero;stroke:none"
         id="path4543"
         inkscape:connector-curvature="0" /><path
         d="m 965.992,712.507 h 15.192 v -7.594 c 3.5,4.497 7.996,8.594 15.691,8.594 11.495,0 18.185,-7.597 18.185,-19.886 v -34.684 h -15.189 v 29.883 c 0,7.199 -3.394,10.894 -9.191,10.894 -5.801,0 -9.496,-3.695 -9.496,-10.894 v -29.883 h -15.192 v 53.57"
         style="fill:#231f20;fill-opacity:1;fill-rule:nonzero;stroke:none"
         id="path4545"
         inkscape:connector-curvature="0" /><path
         d="m 1067.17,685.621 v 0.203 c 0,8.894 -5.9,14.789 -13,14.789 -7.09,0 -13.09,-5.797 -13.09,-14.789 v -0.203 c 0,-8.895 6,-14.79 13.09,-14.79 7.1,0 13,5.895 13,14.79 z m -41.28,0 v 0.203 c 0,17.886 11.69,27.683 24.39,27.683 8.09,0 13.09,-3.695 16.69,-8 v 26.391 h 15.19 v -72.961 h -15.19 v 7.695 c -3.7,-4.996 -8.8,-8.695 -16.69,-8.695 -12.5,0 -24.39,9.793 -24.39,27.684"
         style="fill:#231f20;fill-opacity:1;fill-rule:nonzero;stroke:none"
         id="path4547"
         inkscape:connector-curvature="0" /><path
         d="m 1130.97,689.917 c -0.9,6.797 -4.9,11.399 -11.29,11.399 -6.3,0 -10.4,-4.496 -11.59,-11.399 z m -37.78,-4.496 v 0.2 c 0,15.292 10.9,27.886 26.49,27.886 17.89,0 26.08,-13.89 26.08,-29.082 0,-1.199 -0.1,-2.601 -0.2,-4 h -37.28 c 1.51,-6.898 6.3,-10.492 13.1,-10.492 5.09,0 8.79,1.598 12.99,5.492 l 8.7,-7.695 c -5,-6.195 -12.2,-9.992 -21.89,-9.992 -16.1,0 -27.99,11.293 -27.99,27.683"
         style="fill:#231f20;fill-opacity:1;fill-rule:nonzero;stroke:none"
         id="path4549"
         inkscape:connector-curvature="0" /><path
         d="m 1157.09,712.507 h 15.19 v -7.594 c 3.5,4.497 8,8.594 15.69,8.594 11.5,0 18.19,-7.597 18.19,-19.886 v -34.684 h -15.19 v 29.883 c 0,7.199 -3.4,10.894 -9.19,10.894 -5.8,0 -9.5,-3.695 -9.5,-10.894 v -29.883 h -15.19 v 53.57"
         style="fill:#231f20;fill-opacity:1;fill-rule:nonzero;stroke:none"
         id="path4551"
         inkscape:connector-curvature="0" /><path
         d="m 1260.46,685.621 v 0.203 c 0,8.894 -6,14.789 -13.09,14.789 -7.1,0 -12.99,-5.895 -12.99,-14.789 v -0.203 c 0,-8.895 5.89,-14.79 12.99,-14.79 7.09,0 13.09,5.797 13.09,14.79 z m -25.88,-19.688 v -6.996 h -15.2 v 72.961 h 15.2 v -27.086 c 3.69,5 8.79,8.695 16.68,8.695 12.5,0 24.39,-9.797 24.39,-27.683 v -0.203 c 0,-17.891 -11.69,-27.684 -24.39,-27.684 -8.09,0 -13.09,3.699 -16.68,7.996"
         style="fill:#231f20;fill-opacity:1;fill-rule:nonzero;stroke:none"
         id="path4553"
         inkscape:connector-curvature="0" /><path
         d="m 1286.48,677.828 v 34.679 h 15.19 v -29.883 c 0,-7.199 3.4,-10.894 9.2,-10.894 5.8,0 9.5,3.695 9.5,10.894 v 29.883 h 15.19 v -53.57 h -15.19 v 7.598 c -3.5,-4.497 -8,-8.598 -15.7,-8.598 -11.49,0 -18.19,7.598 -18.19,19.891"
         style="fill:#231f20;fill-opacity:1;fill-rule:nonzero;stroke:none"
         id="path4555"
         inkscape:connector-curvature="0" /><path
         d="m 1349.18,712.507 h 15.2 v -10.793 c 3.1,7.395 8.09,12.196 17.08,11.793 v -15.894 h -0.79 c -10.1,0 -16.29,-6.094 -16.29,-18.887 v -19.789 h -15.2 v 53.57"
         style="fill:#231f20;fill-opacity:1;fill-rule:nonzero;stroke:none"
         id="path4557"
         inkscape:connector-curvature="0" /><path
         d="m 1428.86,688.324 v 0.199 c 0,7.293 -5.7,12.39 -13.09,12.39 -7.4,0 -12.99,-5.097 -12.99,-12.39 v -0.199 c 0,-7.399 5.59,-12.395 12.99,-12.395 7.39,0 13.09,5.098 13.09,12.395 z m -38.58,-39.985 5.2,11.399 c 5.5,-3.102 10.99,-4.899 18.09,-4.899 10.39,0 15.29,4.996 15.29,14.59 v 2.598 c -4.49,-5.395 -9.39,-8.692 -17.49,-8.692 -12.49,0 -23.78,9.094 -23.78,24.989 v 0.199 c 0,15.988 11.49,24.984 23.78,24.984 8.3,0 13.2,-3.496 17.29,-8 v 7 h 15.2 v -41.476 c 0,-9.594 -2.3,-16.59 -6.8,-21.086 -5,-5 -12.69,-7.199 -23.09,-7.199 -8.69,0 -16.89,1.996 -23.69,5.593"
         style="fill:#231f20;fill-opacity:1;fill-rule:nonzero;stroke:none"
         id="path4559"
         inkscape:connector-curvature="0" /><path
         d="m 796.676,574.562 v 37.82 h 7.34 v -37.351 c 0,-14.032 7.527,-21.934 19.886,-21.934 11.989,0 19.606,7.246 19.606,21.465 v 37.82 h 7.344 v -37.261 c 0,-18.958 -10.875,-28.801 -27.137,-28.801 -16.078,0 -27.039,9.843 -27.039,28.242"
         style="fill:#231f20;fill-opacity:1;fill-rule:nonzero;stroke:none"
         id="path4561"
         inkscape:connector-curvature="0" /><path
         d="m 867.074,595.378 h 7.156 v -8.367 c 3.157,5.207 8.176,9.387 16.45,9.387 11.617,0 18.398,-7.805 18.398,-19.238 v -29.825 h -7.16 v 28.067 c 0,8.918 -4.828,14.492 -13.285,14.492 -8.274,0 -14.403,-6.035 -14.403,-15.059 v -27.5 h -7.156 v 48.043"
         style="fill:#231f20;fill-opacity:1;fill-rule:nonzero;stroke:none"
         id="path4563"
         inkscape:connector-curvature="0" /><path
         d="m 925.012,595.378 h 7.152 v -48.043 h -7.152 z m -0.465,18.399 h 8.18 v -7.899 h -8.18 v 7.899"
         style="fill:#231f20;fill-opacity:1;fill-rule:nonzero;stroke:none"
         id="path4565"
         inkscape:connector-curvature="0" /><path
         d="m 944.078,595.378 h 7.899 l 16.168,-39.859 16.265,39.859 h 7.707 l -20.906,-48.414 h -6.316 l -20.817,48.414"
         style="fill:#231f20;fill-opacity:1;fill-rule:nonzero;stroke:none"
         id="path4567"
         inkscape:connector-curvature="0" /><path
         d="m 1035.84,574.003 c -0.75,8.743 -5.76,16.356 -15.34,16.356 -8.36,0 -14.68,-6.969 -15.61,-16.356 z m -38.195,-2.781 v 0.176 c 0,13.848 9.755,25 23.045,25 14.22,0 22.4,-11.328 22.4,-25.371 0,-0.918 0,-1.485 -0.1,-2.324 h -38.1 c 1.02,-10.403 8.37,-16.25 16.92,-16.25 6.59,0 11.24,2.695 15.14,6.777 l 4.46,-3.992 c -4.83,-5.395 -10.68,-9.016 -19.79,-9.016 -13.2,0 -23.975,10.129 -23.975,25"
         style="fill:#231f20;fill-opacity:1;fill-rule:nonzero;stroke:none"
         id="path4569"
         inkscape:connector-curvature="0" /><path
         d="m 1055.67,595.378 h 7.16 v -12.547 c 3.53,7.997 10.5,13.758 19.61,13.379 v -7.707 h -0.56 c -10.5,0 -19.05,-7.535 -19.05,-22.027 v -19.141 h -7.16 v 48.043"
         style="fill:#231f20;fill-opacity:1;fill-rule:nonzero;stroke:none"
         id="path4571"
         inkscape:connector-curvature="0" /><path
         d="m 1089.34,553.468 3.63,5.117 c 5.2,-3.906 10.96,-6.132 16.63,-6.132 5.76,0 9.94,2.968 9.94,7.617 v 0.176 c 0,4.843 -5.66,6.699 -11.99,8.457 -7.52,2.148 -15.88,4.746 -15.88,13.574 v 0.183 c 0,8.274 6.87,13.75 16.35,13.75 5.86,0 12.36,-2.039 17.28,-5.293 l -3.25,-5.386 c -4.46,2.879 -9.57,4.64 -14.21,4.64 -5.67,0 -9.3,-2.972 -9.3,-6.965 v -0.187 c 0,-4.551 5.95,-6.316 12.36,-8.27 7.43,-2.238 15.43,-5.109 15.43,-13.75 v -0.187 c 0,-9.109 -7.53,-14.402 -17.1,-14.402 -6.88,0 -14.5,2.695 -19.89,7.058"
         style="fill:#231f20;fill-opacity:1;fill-rule:nonzero;stroke:none"
         id="path4573"
         inkscape:connector-curvature="0" /><path
         d="m 1140.3,595.378 h 7.16 v -48.043 h -7.16 z m -0.46,18.399 h 8.18 v -7.899 h -8.18 v 7.899"
         style="fill:#231f20;fill-opacity:1;fill-rule:nonzero;stroke:none"
         id="path4575"
         inkscape:connector-curvature="0" /><path
         d="m 1166.62,560.07 v 28.988 h -6.69 v 6.32 h 6.69 v 14.496 h 7.15 v -14.496 h 15.24 v -6.32 h -15.24 v -28.059 c 0,-5.851 3.26,-8 8.09,-8 2.41,0 4.46,0.469 6.97,1.68 v -6.133 c -2.51,-1.308 -5.21,-2.05 -8.64,-2.05 -7.72,0 -13.57,3.808 -13.57,13.574"
         style="fill:#231f20;fill-opacity:1;fill-rule:nonzero;stroke:none"
         id="path4577"
         inkscape:connector-curvature="0" /><path
         d="m 1237.65,595.378 h 7.61 l -20.16,-49.625 c -4.09,-9.941 -8.73,-13.562 -15.98,-13.562 -4,0 -6.97,0.828 -10.22,2.41 l 2.41,5.676 c 2.32,-1.211 4.46,-1.77 7.53,-1.77 4.28,0 6.97,2.227 9.85,9.016 l -21.84,47.855 h 7.9 l 17.47,-40.054 15.43,40.054"
         style="fill:#231f20;fill-opacity:1;fill-rule:nonzero;stroke:none"
         id="path4579"
         inkscape:connector-curvature="0" /><path
         d="m 1324.31,571.124 v 0.188 c 0,10.32 -7.71,18.769 -17.84,18.769 -10.41,0 -17.56,-8.449 -17.56,-18.585 v -0.184 c 0,-10.313 7.62,-18.684 17.75,-18.684 10.41,0 17.65,8.371 17.65,18.496 z m -42.74,0 v 0.188 c 0,13.562 10.59,25.086 25.09,25.086 14.4,0 25,-11.328 25,-24.902 v -0.184 c 0,-13.566 -10.69,-25.09 -25.19,-25.09 -14.4,0 -24.9,11.328 -24.9,24.902"
         style="fill:#231f20;fill-opacity:1;fill-rule:nonzero;stroke:none"
         id="path4581"
         inkscape:connector-curvature="0" /><path
         d="m 1347.31,589.058 h -6.6 v 6.227 h 6.6 v 4.183 c 0,5.481 1.49,9.664 4.18,12.36 2.42,2.414 5.95,3.714 10.32,3.714 3.35,0 5.57,-0.371 7.9,-1.207 v -6.226 c -2.61,0.746 -4.55,1.211 -6.97,1.211 -5.58,0 -8.36,-3.348 -8.36,-10.227 v -3.902 h 15.23 v -6.133 h -15.14 v -41.723 h -7.16 v 41.723"
         style="fill:#231f20;fill-opacity:1;fill-rule:nonzero;stroke:none"
         id="path4583"
         inkscape:connector-curvature="0" /><path
         d="m 839.883,459.621 -14.778,33.085 -14.867,-33.085 z m -18.121,41.628 h 6.883 l 29.636,-65.515 h -7.894 l -7.621,17.199 h -35.407 l -7.711,-17.199 h -7.531 l 29.645,65.515"
         style="fill:#231f20;fill-opacity:1;fill-rule:nonzero;stroke:none"
         id="path4585"
         inkscape:connector-curvature="0" /><path
         d="m 911.129,459.621 v 0.187 c 0,11.336 -7.809,18.582 -16.914,18.582 -8.922,0 -17.379,-7.519 -17.379,-18.496 v -0.176 c 0,-11.152 8.457,-18.594 17.379,-18.594 9.293,0 16.914,6.875 16.914,18.497 z m -41.168,24.16 h 7.152 v -9.668 c 3.903,5.761 9.571,10.695 18.399,10.695 11.523,0 22.957,-9.113 22.957,-24.914 v -0.176 c 0,-15.703 -11.34,-25 -22.957,-25 -8.918,0 -14.684,4.824 -18.399,10.215 v -24.062 h -7.152 v 62.91"
         style="fill:#231f20;fill-opacity:1;fill-rule:nonzero;stroke:none"
         id="path4587"
         inkscape:connector-curvature="0" /><path
         d="m 972.875,459.621 v 0.187 c 0,11.336 -7.809,18.582 -16.914,18.582 -8.918,0 -17.375,-7.519 -17.375,-18.496 v -0.176 c 0,-11.152 8.457,-18.594 17.375,-18.594 9.293,0 16.914,6.875 16.914,18.497 z m -41.164,24.16 h 7.152 v -9.668 c 3.903,5.761 9.571,10.695 18.399,10.695 11.523,0 22.953,-9.113 22.953,-24.914 v -0.176 c 0,-15.703 -11.336,-25 -22.953,-25 -8.922,0 -14.684,4.824 -18.399,10.215 v -24.062 h -7.152 v 62.91"
         style="fill:#231f20;fill-opacity:1;fill-rule:nonzero;stroke:none"
         id="path4589"
         inkscape:connector-curvature="0" /><path
         d="m 994.109,435.734 h 7.1523 v 67.8438 h -7.1523 z"
         style="fill:#231f20;fill-opacity:1;fill-rule:nonzero;stroke:none"
         id="path4591"
         inkscape:connector-curvature="0" /><path
         d="m 1018.56,483.781 h 7.16 v -48.047 h -7.16 z m -0.46,18.398 h 8.18 v -7.891 h -8.18 v 7.891"
         style="fill:#231f20;fill-opacity:1;fill-rule:nonzero;stroke:none"
         id="path4593"
         inkscape:connector-curvature="0" /><path
         d="m 1077.59,462.413 c -0.74,8.731 -5.76,16.348 -15.33,16.348 -8.36,0 -14.69,-6.973 -15.61,-16.348 z m -38.19,-2.792 v 0.187 c 0,13.848 9.76,25 23.04,25 14.22,0 22.4,-11.34 22.4,-25.371 0,-0.93 0,-1.496 -0.09,-2.324 h -38.1 c 1.02,-10.403 8.36,-16.262 16.91,-16.262 6.6,0 11.24,2.695 15.15,6.777 l 4.45,-3.984 c -4.83,-5.391 -10.68,-9.023 -19.79,-9.023 -13.19,0 -23.97,10.136 -23.97,25"
         style="fill:#231f20;fill-opacity:1;fill-rule:nonzero;stroke:none"
         id="path4595"
         inkscape:connector-curvature="0" /><path
         d="m 1136.27,459.718 v 0.176 c 0,11.062 -8.45,18.496 -17.37,18.496 -9.3,0 -16.92,-6.875 -16.92,-18.496 v -0.176 c 0,-11.347 7.9,-18.594 16.92,-18.594 8.92,0 17.37,7.532 17.37,18.594 z m -41.63,-0.097 v 0.187 c 0,15.699 11.43,25 22.95,25 8.92,0 14.69,-4.836 18.41,-10.227 v 28.997 h 7.15 V 435.734 H 1136 v 9.668 c -3.91,-5.762 -9.58,-10.684 -18.41,-10.684 -11.52,0 -22.95,9.102 -22.95,24.903"
         style="fill:#231f20;fill-opacity:1;fill-rule:nonzero;stroke:none"
         id="path4597"
         inkscape:connector-curvature="0" /><path
         d="m 1184.01,445.214 4.55,5.395 c 6.79,-6.133 13.3,-9.199 22.31,-9.199 8.73,0 14.5,4.636 14.5,11.062 v 0.176 c 0,6.047 -3.26,9.48 -16.92,12.363 -14.96,3.25 -21.83,8.086 -21.83,18.77 v 0.183 c 0,10.227 9.01,17.746 21.37,17.746 9.48,0 16.26,-2.695 22.85,-7.988 l -4.27,-5.664 c -6.04,4.922 -12.08,7.063 -18.77,7.063 -8.45,0 -13.84,-4.653 -13.84,-10.5 v -0.196 c 0,-6.133 3.34,-9.57 17.65,-12.637 14.5,-3.156 21.19,-8.457 21.19,-18.398 v -0.176 c 0,-11.152 -9.29,-18.398 -22.21,-18.398 -10.32,0 -18.77,3.437 -26.58,10.398"
         style="fill:#231f20;fill-opacity:1;fill-rule:nonzero;stroke:none"
         id="path4599"
         inkscape:connector-curvature="0" /><path
         d="m 1243.63,459.523 v 0.195 c 0,13.567 10.59,25.09 24.62,25.09 9.11,0 14.78,-3.82 19.24,-8.547 l -4.74,-5.019 c -3.81,3.984 -8.09,7.246 -14.59,7.246 -9.76,0 -17.19,-8.274 -17.19,-18.594 v -0.176 c 0,-10.41 7.62,-18.68 17.65,-18.68 6.14,0 10.88,3.067 14.69,7.157 l 4.55,-4.278 c -4.83,-5.39 -10.59,-9.296 -19.61,-9.296 -14.03,0 -24.62,11.425 -24.62,24.902"
         style="fill:#231f20;fill-opacity:1;fill-rule:nonzero;stroke:none"
         id="path4601"
         inkscape:connector-curvature="0" /><path
         d="m 1300.35,483.781 h 7.15 v -48.047 h -7.15 z m -0.46,18.398 h 8.18 v -7.891 h -8.18 v 7.891"
         style="fill:#231f20;fill-opacity:1;fill-rule:nonzero;stroke:none"
         id="path4603"
         inkscape:connector-curvature="0" /><path
         d="m 1359.38,462.413 c -0.75,8.731 -5.76,16.348 -15.34,16.348 -8.36,0 -14.68,-6.973 -15.61,-16.348 z m -38.19,-2.792 v 0.187 c 0,13.848 9.75,25 23.04,25 14.22,0 22.4,-11.34 22.4,-25.371 0,-0.93 0,-1.496 -0.1,-2.324 h -38.1 c 1.02,-10.403 8.37,-16.262 16.92,-16.262 6.59,0 11.24,2.695 15.14,6.777 l 4.46,-3.984 c -4.83,-5.391 -10.68,-9.023 -19.79,-9.023 -13.2,0 -23.97,10.136 -23.97,25"
         style="fill:#231f20;fill-opacity:1;fill-rule:nonzero;stroke:none"
         id="path4605"
         inkscape:connector-curvature="0" /><path
         d="m 1379.21,483.781 h 7.16 v -8.36 c 3.16,5.196 8.18,9.387 16.45,9.387 11.61,0 18.4,-7.805 18.4,-19.238 v -29.836 h -7.16 V 463.8 c 0,8.926 -4.83,14.492 -13.29,14.492 -8.27,0 -14.4,-6.035 -14.4,-15.046 v -27.512 h -7.16 v 48.047"
         style="fill:#231f20;fill-opacity:1;fill-rule:nonzero;stroke:none"
         id="path4607"
         inkscape:connector-curvature="0" /><path
         d="m 1433.53,459.523 v 0.195 c 0,13.567 10.59,25.09 24.62,25.09 9.11,0 14.78,-3.82 19.24,-8.547 l -4.74,-5.019 c -3.81,3.984 -8.08,7.246 -14.59,7.246 -9.75,0 -17.19,-8.274 -17.19,-18.594 v -0.176 c 0,-10.41 7.62,-18.68 17.66,-18.68 6.13,0 10.87,3.067 14.68,7.157 l 4.55,-4.278 c -4.83,-5.39 -10.59,-9.296 -19.61,-9.296 -14.03,0 -24.62,11.425 -24.62,24.902"
         style="fill:#231f20;fill-opacity:1;fill-rule:nonzero;stroke:none"
         id="path4609"
         inkscape:connector-curvature="0" /><path
         d="m 1523.43,462.413 c -0.74,8.731 -5.76,16.348 -15.33,16.348 -8.36,0 -14.69,-6.973 -15.61,-16.348 z m -38.19,-2.792 v 0.187 c 0,13.848 9.76,25 23.04,25 14.22,0 22.4,-11.34 22.4,-25.371 0,-0.93 0,-1.496 -0.09,-2.324 h -38.1 c 1.02,-10.403 8.36,-16.262 16.91,-16.262 6.6,0 11.24,2.695 15.15,6.777 l 4.45,-3.984 c -4.83,-5.391 -10.68,-9.023 -19.79,-9.023 -13.19,0 -23.97,10.136 -23.97,25"
         style="fill:#231f20;fill-opacity:1;fill-rule:nonzero;stroke:none"
         id="path4611"
         inkscape:connector-curvature="0" /><path
         d="m 1539.27,441.867 3.63,5.117 c 5.2,-3.906 10.96,-6.133 16.63,-6.133 5.76,0 9.94,2.969 9.94,7.617 v 0.188 c 0,4.832 -5.67,6.687 -11.99,8.457 -7.52,2.136 -15.89,4.734 -15.89,13.562 v 0.196 c 0,8.261 6.88,13.75 16.36,13.75 5.85,0 12.36,-2.051 17.28,-5.293 l -3.25,-5.391 c -4.46,2.871 -9.57,4.641 -14.22,4.641 -5.67,0 -9.29,-2.981 -9.29,-6.965 v -0.196 c 0,-4.55 5.94,-6.308 12.36,-8.261 7.43,-2.239 15.42,-5.118 15.42,-13.75 v -0.196 c 0,-9.101 -7.52,-14.394 -17.09,-14.394 -6.88,0 -14.5,2.695 -19.89,7.051"
         style="fill:#231f20;fill-opacity:1;fill-rule:nonzero;stroke:none"
         id="path4613"
         inkscape:connector-curvature="0" /><path
         d="m 495.652,494.581 v -0.039 c -70.625,33.399 -141.238,-35.488 -211.851,-0.644 v -58.457 c 71.109,-35.059 142.207,35.078 213.328,0 v 0.039 c 70.625,-33.379 141.238,35.488 211.855,0.683 v 58.418 c -71.113,35.059 -142.207,-35.078 -213.332,0"
         style="fill:#d01539;fill-opacity:1;fill-rule:nonzero;stroke:none"
         id="path4615"
         inkscape:connector-curvature="0" /><path
         d="m 283.801,675.757 h 425.184 v 58.4375 H 283.801 Z"
         style="fill:#d01539;fill-opacity:1;fill-rule:nonzero;stroke:none"
         id="path4619"
         inkscape:connector-curvature="0" /><path
         d="m 406.055,792.078 h 58.4258 v 58.4258 H 406.055 Z"
         style="fill:#d01539;fill-opacity:1;fill-rule:nonzero;stroke:none"
         id="path4623"
         inkscape:connector-curvature="0" /><path
         d="m 528.301,792.078 h 58.4297 v 58.4258 H 528.301 Z"
         style="fill:#d01539;fill-opacity:1;fill-rule:nonzero;stroke:none"
         id="path4625"
         inkscape:connector-curvature="0" /><path
         d="m 650.547,792.078 h 58.4375 v 58.4258 H 650.547 Z"
         style="fill:#d01539;fill-opacity:1;fill-rule:nonzero;stroke:none"
         id="path4627"
         inkscape:connector-curvature="0" /><g
         id="g4503"
         transform="matrix(4.5162806,0,0,4.5162806,-301.56,488.46125)"
         style="fill:#cc0a2f"
         inkscape:export-xdpi="600.35822"
         inkscape:export-ydpi="600.35822"><g
           id="g5234"
           style="fill:#cc0a2f"><path
             style="fill:#cc0a2f;fill-opacity:1;stroke:none;stroke-width:0.21028666;stroke-opacity:1"
             d="m 141.56929,82.254606 -9.42274,-0.951191 -3.88786,-8.636025 5.53545,-7.684834 9.42273,0.951756 3.88786,8.636015 z M 137.682,77.435065 a 3.8164487,3.8164487 0 0 0 3.81649,-3.816483 3.8164487,3.8164487 0 0 0 -3.81649,-3.816494 3.8164487,3.8164487 0 0 0 -3.8165,3.816494 3.8164487,3.8164487 0 0 0 3.8165,3.816483 z"
             id="path4803"
             inkscape:export-xdpi="46.088928"
             inkscape:export-ydpi="46.088928"
             inkscape:connector-curvature="0" /><path
             style="color:#000000;font-style:normal;font-variant:normal;font-weight:normal;font-stretch:normal;font-size:medium;line-height:normal;font-family:sans-serif;font-variant-ligatures:normal;font-variant-position:normal;font-variant-caps:normal;font-variant-numeric:normal;font-variant-alternates:normal;font-feature-settings:normal;text-indent:0;text-align:start;text-decoration:none;text-decoration-line:none;text-decoration-style:solid;text-decoration-color:#000000;letter-spacing:normal;word-spacing:normal;text-transform:none;writing-mode:lr-tb;direction:ltr;text-orientation:mixed;dominant-baseline:auto;baseline-shift:baseline;text-anchor:start;white-space:normal;shape-padding:0;clip-rule:nonzero;display:inline;overflow:visible;visibility:visible;opacity:1;isolation:auto;mix-blend-mode:normal;color-interpolation:sRGB;color-interpolation-filters:linearRGB;solid-color:#000000;solid-opacity:1;vector-effect:none;fill:#cc0a2f;fill-opacity:1;fill-rule:nonzero;stroke:none;stroke-width:0.28547001;stroke-linecap:round;stroke-linejoin:round;stroke-miterlimit:10;stroke-dasharray:none;stroke-dashoffset:0;stroke-opacity:1;color-rendering:auto;image-rendering:auto;shape-rendering:auto;text-rendering:auto;enable-background:accumulate"
             d="m 139.29278,33.007682 c -0.004,0 -0.009,-3.49e-4 -0.0128,-5.63e-4 l -1.57622,-0.136598 c -0.004,-3.79e-4 -0.007,-0.002 -0.0106,-0.002 l -1.71283,-0.27377 c -0.009,-0.002 -0.0169,-0.0039 -0.0251,-0.0068 l -0.959,-0.342342 c -0.004,-0.002 -0.009,-0.003 -0.0128,-0.0049 l -1.02702,-0.479487 c -0.008,-0.0039 -0.0152,-0.0078 -0.0223,-0.01223 l -1.16418,-0.822398 c -0.007,-0.0049 -0.0131,-0.0099 -0.019,-0.01563 l -0.61666,-0.616102 -0.68468,-0.685789 c -0.005,-0.0049 -0.009,-0.0098 -0.0134,-0.01446 l -0.61723,-0.822398 c -0.002,-0.0019 -0.003,-0.0049 -0.005,-0.0068 l -0.68524,-1.027587 c -0.002,-0.0019 -0.003,-0.0049 -0.004,-0.0068 l -0.68524,-1.164185 c -0.002,-0.0039 -0.004,-0.0078 -0.006,-0.01116 l -0.67238,-1.413431 c -0.063,-0.08086 -0.0228,-0.199802 0.0764,-0.225817 7.5e-4,-1.94e-4 9.7e-4,-6.21e-4 0.002,-9.71e-4 0.002,-2.91e-4 0.004,-7.37e-4 0.006,-9.7e-4 0.008,-0.0019 0.0148,-0.0029 0.0223,-0.0029 v -5.44e-4 c 0.0189,-9.71e-4 0.0379,0.0019 0.0558,0.0078 l 9.19975,1.623701 2.72868,-4.592607 -1.33367,-5.333602 -9.49188,-1.626963 c -0.0237,-0.0029 -0.0463,-0.01136 -0.0657,-0.02504 -0.008,-0.0058 -0.015,-0.01155 -0.0217,-0.01835 -0.0514,-0.05446 -0.0525,-0.139317 -0.002,-0.194589 0.003,-0.0029 0.006,-0.0068 0.01,-0.01009 h 9.7e-4 c 0.004,-0.0029 0.007,-0.0058 0.0106,-0.0087 l 1.02758,-0.753817 c 7.7e-4,-7.67e-4 0.002,-9.71e-4 0.003,-0.0019 l 0.89098,-0.616645 c 0.002,-0.0019 0.005,-0.0029 0.007,-0.0049 l 0.89042,-0.547521 c 0.002,-0.0019 0.004,-0.0029 0.006,-0.0039 l 0.75382,-0.410923 c 0.004,-0.0019 0.008,-0.0039 0.0117,-0.0058 l 1.43906,-0.616091 c 0.005,-0.002 0.0103,-0.0039 0.0156,-0.0058 l 1.16529,-0.342895 c 0.004,-9.71e-4 0.008,-0.002 0.0122,-0.003 l 1.02759,-0.205178 c 0.006,-0.002 0.0114,-0.003 0.0173,-0.003 l 0.89042,-0.06805 c 0.008,-3.89e-4 0.016,-4.95e-4 0.024,5.52e-4 l 1.49759,0.136037 c 0.006,1.74e-4 0.0122,9.7e-4 0.0185,0.002 0.002,1.56e-4 0.004,6.8e-5 0.005,5.53e-4 l 1.0956,0.205743 c 3.8e-4,-9e-6 9.7e-4,-9e-6 0.002,0 l 1.02813,0.206296 c 0.008,0.002 0.0154,0.0039 0.0229,0.0068 l 1.78141,0.684673 c 0.005,0.0019 0.0102,0.0049 0.015,0.0068 l 2.87755,1.50708 1.43405,0.751584 1.56897,0.681343 1.76913,0.680218 1.97432,0.476717 2.25364,0.410369 2.52575,0.341215 2.80061,0.136045 3.01138,0.06863 h 6.43814 l 6.57639,-0.06863 6.30266,-0.06863 3.01304,-0.06805 c 9.7e-4,-1.9e-5 0.002,-1.9e-5 0.003,0 h 2.8073 l 2.73873,-0.06863 2.53077,-0.06863 2.32446,-0.205179 2.25755,-0.20518 2.04679,-0.272644 1.91187,-0.409816 1.77694,-0.410359 1.70613,-0.477833 6.495,-2.187298 c 0.006,-0.0029 0.0125,-0.0049 0.019,-0.0058 0.008,-0.0019 0.0162,-0.0039 0.0246,-0.0049 l 1.90573,-0.340118 c 0.01,-0.0019 0.0197,-0.0029 0.0295,-0.0019 l 1.98714,0.06805 c 0.008,7.67e-4 0.0165,0.0019 0.0246,0.0039 l 1.91856,0.410369 c 0.008,0.0019 0.0162,0.0039 0.024,0.0068 l 1.84942,0.753817 c 0.0112,0.0049 0.0216,0.01058 0.0313,0.01776 l 1.57621,1.164185 c 0.008,0.0058 0.0144,0.01233 0.0207,0.01951 l 1.30189,1.4385 c 0.006,0.0068 0.0116,0.01437 0.0161,0.02233 l 1.02814,1.712813 c 0.005,0.0087 0.01,0.01738 0.0128,0.02679 l 0.61609,1.781394 c 0.004,0.01029 0.006,0.02097 0.007,0.03184 l 0.20628,1.918002 c 7.7e-4,0.0087 9.7e-4,0.0167 5.7e-4,0.02504 l -0.1379,1.987229 c -3.8e-4,0.01048 -0.002,0.02058 -0.005,0.03058 l -0.54864,1.849412 c -0.003,0.01009 -0.007,0.0198 -0.0117,0.02893 l -0.95901,1.712822 c -0.005,0.0098 -0.0117,0.01854 -0.019,0.02679 l -1.30134,1.43851 c -0.005,0.0058 -0.0101,0.01049 -0.0156,0.01505 l -1.50767,1.23332 c -0.01,0.0078 -0.0197,0.01359 -0.0307,0.01844 l -1.7814,0.822398 c -0.007,0.0029 -0.0136,0.0049 -0.0207,0.0068 l -1.91799,0.548636 c -0.0111,0.0029 -0.0225,0.0049 -0.0341,0.0059 l -1.98713,0.06805 c -0.009,2.81e-4 -0.0172,6.9e-5 -0.0256,-9.7e-4 l -1.91797,-0.273767 c -0.0101,-0.002 -0.02,-0.0039 -0.0296,-0.0068 l -1.83436,-0.680209 c -0.01,-0.0019 -0.0185,-0.0058 -0.0273,-0.0098 L 209.9376,30.188 l -1.22663,-0.544725 -2.45548,-0.887076 -1.29355,-0.340119 -1.49982,-0.341225 -1.70558,-0.273207 -1.84495,-0.205179 -2.1204,-0.204064 -2.32446,-0.137161 -2.53299,-0.06912 c -7.6e-4,0 -0.002,0 -0.003,0 l -2.73867,-0.136609 -2.9428,-0.06863 h -3.08107 c -7.6e-4,10e-6 -9.7e-4,10e-6 -0.002,0 l -6.50781,-0.06805 h -6.50783 -3.14964 l -2.94503,0.06805 c -7.6e-4,10e-6 -0.002,10e-6 -0.003,0 h -2.80722 l -2.53132,0.06863 -2.32669,0.136609 -2.12255,0.137152 -1.9141,0.136608 -1.63365,0.204627 -1.4976,0.340108 -1.29464,0.340662 -1.15025,0.405914 -1.08334,0.541949 -1.01699,0.61052 -1.0772,0.807342 c -0.004,0.0039 -0.009,0.0068 -0.0128,0.0098 -7.5e-4,3.78e-4 -0.002,9.12e-4 -0.003,0.0019 l -0.003,0.0019 c -7.5e-4,2.81e-4 -9e-4,7.37e-4 -0.002,9.7e-4 l -0.9551,0.683003 c -0.002,0.002 -0.004,0.0029 -0.006,0.0039 l -0.95901,0.616128 c -0.005,0.0039 -0.011,0.0068 -0.0167,0.0098 l -0.89154,0.411476 c -0.005,0.002 -0.009,0.0039 -0.0139,0.0058 l -0.8224,0.274312 c -0.002,7.68e-4 -0.005,0.002 -0.007,0.002 l -0.75381,0.205179 c -0.009,0.002 -0.0174,0.0039 -0.0262,0.0049 l -0.8224,0.06863 c -0.003,2.44e-4 -0.006,-1.9e-5 -0.009,0 z m 76.2467,-4.723081 v -9.71e-4 c 0.0568,0.0039 0.11063,-0.02543 0.13716,-0.07581 l 1.21492,-1.27904 1.66209,0.511847 c 0.0618,0.03815 0.14252,0.02378 0.18734,-0.03349 3.8e-4,-3.89e-4 8.2e-4,-7.38e-4 9.7e-4,-9.71e-4 0.003,-0.0029 0.005,-0.0058 0.007,-0.0098 0.0154,-0.02252 0.0244,-0.04902 0.025,-0.0764 l 0.32001,-1.667104 1.75852,-0.390295 c 9.7e-4,-1.07e-4 0.002,-3.49e-4 0.003,-5.53e-4 0.0942,-0.02068 0.14136,-0.127096 0.0931,-0.210752 l -0.51128,-1.59629 1.29464,-1.166418 c 0.004,-0.0029 0.007,-0.0058 0.0106,-0.0098 0.002,-0.0019 0.005,-0.0039 0.007,-0.0058 9.7e-4,-9.7e-4 0.002,-0.0019 0.003,-0.0039 0.002,-0.0019 0.004,-0.0049 0.006,-0.0068 7.7e-4,-9.71e-4 0.002,-0.0029 0.003,-0.0049 0.0473,-0.06659 0.0291,-0.159041 -0.0395,-0.202956 l -1.28527,-1.155819 0.52132,-1.694428 c 0.002,-0.0039 0.003,-0.0068 0.003,-0.01116 4.9e-4,-7.67e-4 3.8e-4,-0.0019 5.7e-4,-0.0019 7.5e-4,-0.0019 0.002,-0.0049 0.002,-0.0068 3.9e-4,-0.0029 8.4e-4,-0.0049 9.7e-4,-0.0078 4.9e-4,-0.0019 4.2e-4,-0.0049 5.6e-4,-0.0068 6e-5,-0.0019 6e-5,-0.0049 0,-0.0068 5e-5,-0.0019 5e-5,-0.0049 0,-0.0068 0,-0.0029 -3e-4,-0.0049 -5.6e-4,-0.0078 0,-0.0019 -3.1e-4,-0.0049 -5.5e-4,-0.0068 0,-0.0019 -9.7e-4,-0.0049 -0.002,-0.0068 -7.6e-4,-0.0019 -0.002,-0.0049 -0.002,-0.0068 -0.0147,-0.06115 -0.0677,-0.105477 -0.13046,-0.109283 l -1.73692,-0.320593 -0.3206,-1.668219 c -0.002,-0.03912 -0.0207,-0.07562 -0.0507,-0.100915 -7.6e-4,-3.88e-4 -0.002,-9.71e-4 -0.002,-0.0019 -7.7e-4,-7.67e-4 -9.7e-4,-9.71e-4 -0.002,-0.0019 -0.003,-0.0019 -0.006,-0.0049 -0.009,-0.0068 -7.7e-4,-7.67e-4 -0.002,-9.12e-4 -0.003,-0.0019 -0.0233,-0.01505 -0.0503,-0.02349 -0.0781,-0.02339 -0.0215,2.62e-4 -0.0427,0.0058 -0.0618,0.01505 l -1.67488,0.515185 -1.22552,-1.290194 c -0.026,-0.03795 -0.0688,-0.06115 -0.11485,-0.06183 h -9.7e-4 c -7.6e-4,-10e-6 -9e-4,-10e-6 -0.002,0 -0.0521,-9.71e-4 -0.10087,0.02572 -0.12713,0.07077 l -1.15303,1.28071 -1.671,-0.514623 c -0.0239,-0.01233 -0.0508,-0.01728 -0.0775,-0.01505 -0.01,9.03e-4 -0.0188,0.0029 -0.0279,0.0058 -7.6e-4,1.16e-4 -9.7e-4,3.69e-4 -0.002,5.63e-4 -0.0617,0.01728 -0.10438,0.07358 -0.10427,0.137715 l -0.38304,1.659861 -1.66487,0.320597 c -0.0426,6.41e-4 -0.0827,0.02029 -0.10928,0.05349 l -0.002,0.0019 c -0.005,0.0058 -0.01,0.01301 -0.0134,0.02009 -7.7e-4,9.71e-4 -9.7e-4,0.0019 -0.002,0.0039 -3.8e-4,7.57e-4 -8.3e-4,9.71e-4 -9.7e-4,0.0019 -0.0201,0.04019 -0.0201,0.08746 0,0.127688 l 0.51406,1.672111 -1.28963,1.15973 c -0.0675,0.04708 -0.0813,0.141287 -0.0301,0.205733 3.7e-4,7.67e-4 8.2e-4,9.12e-4 9.7e-4,0.0019 0.002,0.0019 0.004,0.0049 0.006,0.0068 7.5e-4,7.67e-4 9.7e-4,0.0019 0.002,0.0029 l 5.5e-4,5.53e-4 c 0.002,0.0029 0.005,0.0049 0.007,0.0068 l 1.302,1.172003 -0.51519,1.609102 c -0.0244,0.05446 -0.0123,0.118194 0.0301,0.160022 0.003,0.0029 0.007,0.0068 0.0106,0.0098 l 5.6e-4,5.73e-4 c 0.011,0.0087 0.0232,0.01592 0.0362,0.02126 0.0109,0.0039 0.0223,0.0078 0.0341,0.0087 l 1.68159,0.388615 0.3864,1.67547 c 0.002,0.02456 0.0106,0.04824 0.0246,0.06863 l 9.7e-4,9.71e-4 c 4.9e-4,3.88e-4 3.8e-4,8.34e-4 5.6e-4,9.7e-4 0.0429,0.06397 0.12866,0.08251 0.19403,0.04174 l 1.65986,-0.511284 1.17254,1.30357 9.7e-4,9.71e-4 c 0.003,0.0029 0.006,0.0068 0.009,0.0098 0.024,0.02369 0.0556,0.03805 0.0892,0.04067 z"
             id="path4760"
             inkscape:export-xdpi="46.088928"
             inkscape:export-ydpi="46.088928"
             inkscape:connector-curvature="0" /></g></g><g
         aria-label="Offene Werkstatt"
         transform="scale(1.0815848,-0.9245692)"
         style="font-style:normal;font-variant:normal;font-weight:normal;font-stretch:condensed;font-size:105.51525116px;line-height:1.25;font-family:'Gotham Narrow';-inkscape-font-specification:'Gotham Narrow Condensed';letter-spacing:0px;word-spacing:0px;fill:#cb0b30;fill-opacity:1;stroke:none;stroke-width:6.94179249"
         id="text78"><path
           d="m 768.099,-336.72259 c 19.52032,0 33.44834,-15.61625 33.44834,-37.66894 v -1.26618 c 0,-22.05269 -13.71699,-37.45792 -33.34282,-37.45792 -19.52032,0 -33.44834,15.51074 -33.44834,37.66895 v 1.26618 c 0,22.05269 13.71698,37.45791 33.34282,37.45791 z m 0.10552,-14.13904 c -10.23498,0 -17.72657,-9.17983 -17.72657,-23.74093 v -0.73861 c 0,-14.5611 7.28056,-23.63541 17.62105,-23.63541 10.23498,0 17.62105,9.17982 17.62105,23.74093 v 0.7386 c 0,14.56111 -7.28055,23.63542 -17.51553,23.63542 z"
           style="font-style:normal;font-variant:normal;font-weight:normal;font-stretch:condensed;font-size:105.51525116px;line-height:1;font-family:'Gotham Narrow';-inkscape-font-specification:'Gotham Narrow Condensed';fill:#cb0b30;fill-opacity:1;stroke-width:6.94179249"
           id="path198" /><path
           d="m 814.59496,-337.98877 h 14.98316 v -43.89434 h 10.76256 v -12.23977 h -10.86807 v -2.21582 c 0,-4.00958 2.00479,-5.80334 5.48679,-5.80334 2.11031,0 3.69304,0.42206 5.4868,0.94964 v -12.34529 c -2.42685,-0.73861 -5.17025,-1.26618 -9.28535,-1.26618 -5.38127,0 -9.49637,1.3717 -12.34528,4.22061 -2.7434,2.74339 -4.22061,6.85849 -4.22061,12.66183 v 3.79855 h -5.69782 v 12.23977 h 5.69782 z m 35.45312,0 h 14.98317 v -43.89434 h 10.76255 v -12.23977 h -10.97358 v -2.21582 c 0,-4.00958 2.1103,-5.80334 5.59231,-5.80334 2.1103,0 3.69303,0.42206 5.48679,0.94964 v -12.34529 c -2.42685,-0.73861 -5.17025,-1.26618 -9.28534,-1.26618 -5.48679,0 -9.60189,1.3717 -12.34529,4.22061 -2.84891,2.74339 -4.22061,6.85849 -4.22061,12.66183 v 3.79855 h -5.5923 v 12.23977 h 5.5923 z"
           style="font-style:normal;font-variant:normal;font-weight:normal;font-stretch:condensed;font-size:105.51525116px;line-height:1;font-family:'Gotham Narrow';-inkscape-font-specification:'Gotham Narrow Condensed';fill:#cb0b30;fill-opacity:1;stroke-width:6.94179249"
           id="path200" /><path
           d="m 906.29925,-336.72259 c 8.44122,0 14.98316,-3.37648 20.15341,-9.07431 l -7.70261,-9.07431 c -3.58752,3.482 -7.17504,5.59231 -11.81771,5.59231 -6.33091,0 -10.97359,-3.90407 -12.23977,-11.39565 h 33.76488 c 0.10552,-2.21582 0.10552,-4.00958 0.10552,-4.8537 0,-16.88244 -7.91365,-30.07185 -24.05748,-30.07185 -14.24456,0 -24.69057,12.23977 -24.69057,29.0167 v 0.94963 c 0,17.62105 11.50116,28.91118 26.48433,28.91118 z m -11.71219,-33.87039 c 0.84412,-8.01916 4.43164,-12.66183 9.91843,-12.66183 5.59231,0 8.9688,4.8537 9.60189,12.66183 z"
           style="font-style:normal;font-variant:normal;font-weight:normal;font-stretch:condensed;font-size:105.51525116px;line-height:1;font-family:'Gotham Narrow';-inkscape-font-specification:'Gotham Narrow Condensed';fill:#cb0b30;fill-opacity:1;stroke-width:6.94179249"
           id="path202" /><path
           d="m 938.39733,-337.98877 h 14.98317 v -34.08143 c 0,-6.64746 3.27097,-10.02394 8.23019,-10.02394 5.06473,0 8.01916,3.37648 8.01916,10.02394 v 34.08143 h 14.98316 v -38.51307 c 0,-11.71219 -6.11988,-19.09826 -16.67141,-19.09826 -7.17503,0 -11.29013,4.1151 -14.5611,8.65225 v -7.59709 h -14.98317 z"
           style="font-style:normal;font-variant:normal;font-weight:normal;font-stretch:condensed;font-size:105.51525116px;line-height:1;font-family:'Gotham Narrow';-inkscape-font-specification:'Gotham Narrow Condensed';fill:#cb0b30;fill-opacity:1;stroke-width:6.94179249"
           id="path204" /><path
           d="m 1020.4701,-336.72259 c 8.4412,0 14.9831,-3.37648 20.1534,-9.07431 l -7.7026,-9.07431 c -3.5876,3.482 -7.1751,5.59231 -11.8178,5.59231 -6.3309,0 -10.9735,-3.90407 -12.2397,-11.39565 h 33.7649 c 0.1055,-2.21582 0.1055,-4.00958 0.1055,-4.8537 0,-16.88244 -7.9137,-30.07185 -24.0575,-30.07185 -14.2446,0 -24.69057,12.23977 -24.69057,29.0167 v 0.94963 c 0,17.62105 11.50117,28.91118 26.48437,28.91118 z m -11.7122,-33.87039 c 0.8441,-8.01916 4.4316,-12.66183 9.9184,-12.66183 5.5923,0 8.9688,4.8537 9.6019,12.66183 z"
           style="font-style:normal;font-variant:normal;font-weight:normal;font-stretch:condensed;font-size:105.51525116px;line-height:1;font-family:'Gotham Narrow';-inkscape-font-specification:'Gotham Narrow Condensed';fill:#cb0b30;fill-opacity:1;stroke-width:6.94179249"
           id="path206" /><path
           d="m 1093.6779,-337.56671 h 13.928 l 13.5059,-46.95429 13.506,46.95429 h 14.0335 l 21.1031,-74.28274 h -15.8273 l -12.3453,48.64254 -13.6115,-48.85357 h -13.2949 l -13.506,48.85357 -12.4508,-48.64254 h -16.1438 z"
           style="font-style:normal;font-variant:normal;font-weight:normal;font-stretch:condensed;font-size:105.51525116px;line-height:1;font-family:'Gotham Narrow';-inkscape-font-specification:'Gotham Narrow Condensed';fill:#cb0b30;fill-opacity:1;stroke-width:6.94179249"
           id="path208" /><path
           d="m 1196.8784,-336.72259 c 8.4412,0 14.9831,-3.37648 20.1534,-9.07431 l -7.7026,-9.07431 c -3.5876,3.482 -7.1751,5.59231 -11.8178,5.59231 -6.3309,0 -10.9735,-3.90407 -12.2397,-11.39565 h 33.7649 c 0.1055,-2.21582 0.1055,-4.00958 0.1055,-4.8537 0,-16.88244 -7.9137,-30.07185 -24.0575,-30.07185 -14.2446,0 -24.6906,12.23977 -24.6906,29.0167 v 0.94963 c 0,17.62105 11.5012,28.91118 26.4844,28.91118 z m -11.7122,-33.87039 c 0.8441,-8.01916 4.4316,-12.66183 9.9184,-12.66183 5.5923,0 8.9688,4.8537 9.6019,12.66183 z"
           style="font-style:normal;font-variant:normal;font-weight:normal;font-stretch:condensed;font-size:105.51525116px;line-height:1;font-family:'Gotham Narrow';-inkscape-font-specification:'Gotham Narrow Condensed';fill:#cb0b30;fill-opacity:1;stroke-width:6.94179249"
           id="path210" /><path
           d="m 1228.9764,-337.98877 h 14.9832 v -23.74093 c 0,-11.81771 5.4868,-17.51553 14.6666,-17.51553 h 0.6331 v -16.24935 c -8.0191,-0.42206 -12.5563,4.11509 -15.2997,10.97358 v -10.02394 h -14.9832 z"
           style="font-style:normal;font-variant:normal;font-weight:normal;font-stretch:condensed;font-size:105.51525116px;line-height:1;font-family:'Gotham Narrow';-inkscape-font-specification:'Gotham Narrow Condensed';fill:#cb0b30;fill-opacity:1;stroke-width:6.94179249"
           id="path212" /><path
           d="m 1267.7203,-337.98877 h 14.9832 v -16.67141 l 4.6426,-6.01437 11.6067,22.68578 h 17.0935 l -18.3597,-34.08143 17.9376,-22.47474 h -17.5155 l -15.4052,20.89202 v -40.51786 h -14.9832 z"
           style="font-style:normal;font-variant:normal;font-weight:normal;font-stretch:condensed;font-size:105.51525116px;line-height:1;font-family:'Gotham Narrow';-inkscape-font-specification:'Gotham Narrow Condensed';fill:#cb0b30;fill-opacity:1;stroke-width:6.94179249"
           id="path214" /><path
           d="m 1339.6323,-336.93362 c 11.2901,0 19.9423,-5.90885 19.9423,-17.62104 v -0.21103 c 0,-8.9688 -6.7529,-13.0839 -14.9831,-16.98796 -6.0144,-2.7434 -10.235,-4.43164 -10.235,-7.38607 v -0.21103 c 0,-2.21582 1.8993,-4.00958 5.4868,-4.00958 4.0096,0 8.6522,2.11031 12.8728,4.8537 l 6.0144,-10.76255 c -5.6978,-4.00958 -12.5563,-6.11989 -18.6762,-6.11989 -10.9736,0 -19.4148,6.43643 -19.4148,17.30451 v 0.21103 c 0,9.60188 6.8585,13.61146 14.8777,17.09347 6.1198,2.63788 10.3405,4.00958 10.3405,7.28055 v 0.21103 c 0,2.32133 -1.7938,4.32612 -6.0144,4.32612 -4.6427,0 -10.024,-2.42685 -15.0887,-6.33091 l -6.5419,10.55152 c 6.8584,5.59231 14.7721,7.80813 21.4196,7.80813 z"
           style="font-style:normal;font-variant:normal;font-weight:normal;font-stretch:condensed;font-size:105.51525116px;line-height:1;font-family:'Gotham Narrow';-inkscape-font-specification:'Gotham Narrow Condensed';fill:#cb0b30;fill-opacity:1;stroke-width:6.94179249"
           id="path216" /><path
           d="m 1384.9758,-337.03913 c 4.5371,0 8.1247,-1.26619 11.0791,-2.95443 v -11.92322 c -1.8993,0.94963 -4.1151,1.58273 -6.4364,1.58273 -3.1655,0 -4.6427,-1.58273 -4.6427,-4.85371 v -26.69535 h 11.1846 v -12.66183 h -11.1846 v -14.45559 h -14.9832 v 14.45559 h -5.6978 v 12.66183 h 5.6978 v 29.7553 c 0,11.71219 6.3309,15.08868 14.9832,15.08868 z"
           style="font-style:normal;font-variant:normal;font-weight:normal;font-stretch:condensed;font-size:105.51525116px;line-height:1;font-family:'Gotham Narrow';-inkscape-font-specification:'Gotham Narrow Condensed';fill:#cb0b30;fill-opacity:1;stroke-width:6.94179249"
           id="path218" /><path
           d="m 1419.8255,-336.93362 c 6.6475,0 11.2901,-2.74339 14.6666,-7.17503 v 6.11988 h 14.6667 v -34.29246 c 0,-7.28055 -1.8993,-13.1894 -5.8034,-17.09347 -3.693,-3.69303 -9.4964,-5.80334 -17.199,-5.80334 -8.1246,0 -13.8225,1.79376 -19.3093,4.53716 l 4.1151,11.71219 c 3.482,-1.47721 7.7026,-3.16545 12.9784,-3.16545 6.753,0 10.657,3.37648 10.657,9.91843 v 1.68824 c -3.482,-1.3717 -7.0695,-2.32133 -11.8177,-2.32133 -11.6066,0 -19.7313,5.59231 -19.7313,18.04311 v 0.63309 c 0,10.97358 7.4916,17.19898 16.7769,17.19898 z m 4.9592,-10.97358 c -4.3261,-0.10552 -7.2805,-2.42685 -7.2805,-7.06952 v -0.21104 c 0,-5.17024 3.482,-7.91364 8.9688,-7.91364 3.0599,0 6.1199,0.73861 8.3357,1.79376 v 4.74819 c 0,5.17024 -4.2206,8.75776 -10.024,8.65225 z"
           style="font-style:normal;font-variant:normal;font-weight:normal;font-stretch:condensed;font-size:105.51525116px;line-height:1;font-family:'Gotham Narrow';-inkscape-font-specification:'Gotham Narrow Condensed';fill:#cb0b30;fill-opacity:1;stroke-width:6.94179249"
           id="path220" /><path
           d="m 1477.3017,-337.03913 c 4.5371,0 8.1246,-1.26619 11.0791,-2.95443 v -11.92322 c -1.8993,0.94963 -4.1151,1.58273 -6.4365,1.58273 -3.1654,0 -4.6426,-1.58273 -4.6426,-4.85371 v -26.69535 h 11.1846 v -12.66183 h -11.1846 v -14.45559 h -14.9832 v 14.45559 h -5.6978 v 12.66183 h 5.6978 v 29.7553 c 0,11.71219 6.3309,15.08868 14.9832,15.08868 z"
           style="font-style:normal;font-variant:normal;font-weight:normal;font-stretch:condensed;font-size:105.51525116px;line-height:1;font-family:'Gotham Narrow';-inkscape-font-specification:'Gotham Narrow Condensed';fill:#cb0b30;fill-opacity:1;stroke-width:6.94179249"
           id="path222" /><path
           d="m 1515.4273,-337.03913 c 4.5371,0 8.1246,-1.26619 11.0791,-2.95443 v -11.92322 c -1.8993,0.94963 -4.1151,1.58273 -6.4365,1.58273 -3.1654,0 -4.6426,-1.58273 -4.6426,-4.85371 v -26.69535 h 11.1846 v -12.66183 h -11.1846 v -14.45559 h -14.9832 v 14.45559 h -5.6978 v 12.66183 h 5.6978 v 29.7553 c 0,11.71219 6.3309,15.08868 14.9832,15.08868 z"
           style="font-style:normal;font-variant:normal;font-weight:normal;font-stretch:condensed;font-size:105.51525116px;line-height:1;font-family:'Gotham Narrow';-inkscape-font-specification:'Gotham Narrow Condensed';fill:#cb0b30;fill-opacity:1;stroke-width:6.94179249"
           id="path224" /></g></g></g></svg>